<svg viewBox="0 0 800 500" preserveAspectRatio="none" xmlns="http://www.w3.org/2000/svg" xmlns:xlink="http://www.w3.org/1999/xlink" width="100%" id="blobSvg">
  <g transform="translate(141.07154846191406, -8.707237243652344)">
    <path class="blob" d="M380.5,277Q363,304,383,373Q403,442,340.5,407.5Q278,373,244.5,396.5Q211,420,187,389.5Q163,359,108.5,351.5Q54,344,67.5,297Q81,250,110.5,223.5Q140,197,128,139.5Q116,82,156.5,49Q197,16,240,61.5Q283,107,325.5,104.5Q368,102,394,135Q420,168,409,209Q398,250,380.5,277Z" fill="#01ad98"></path>
  </g>
</svg>