<svg viewBox="0 0 800 500" preserveAspectRatio="none" xmlns="http://www.w3.org/2000/svg" xmlns:xlink="http://www.w3.org/1999/xlink" width="100%" id="blobSvg">
  <g transform="translate(141.07154846191406, -8.707237243652344)">
    <path class="blob" d="M413.5,279Q369,308,343.5,322Q318,336,308.5,401Q299,466,252.5,455Q206,444,172.5,416.5Q139,389,118.5,356Q98,323,122,286.5Q146,250,135.5,220Q125,190,115,129.5Q105,69,150,38Q195,7,234.5,75.5Q274,144,301.5,147.5Q329,151,393.5,150.5Q458,150,458,200Q458,250,413.5,279Z" fill="#06b4e9"></path>
  </g>
</svg>