<svg id="svg" version="1.1" xmlns="http://www.w3.org/2000/svg" xmlns:xlink="http://www.w3.org/1999/xlink" width="400" height="400" viewBox="0, 0, 400,400"><g id="svgg"><path id="path0" d="M72.000 32.000 C 64.350 39.650,64.350 360.350,72.000 368.000 C 79.606 375.606,320.394 375.606,328.000 368.000 C 335.650 360.350,335.650 39.650,328.000 32.000 C 320.394 24.394,79.606 24.394,72.000 32.000 M174.505 76.667 C 193.254 87.146,196.249 115.825,181.020 139.066 C 169.445 156.732,171.557 166.234,189.706 178.144 C 218.691 197.166,214.839 200.000,160.000 200.000 C 105.161 200.000,101.309 197.166,130.294 178.144 C 148.440 166.236,150.555 156.732,138.988 139.080 C 114.017 100.969,139.105 56.881,174.505 76.667 M281.859 122.698 C 293.078 127.003,290.373 141.680,277.778 144.842 C 261.035 149.044,244.444 143.458,244.444 133.619 C 244.444 121.711,264.234 115.934,281.859 122.698 M281.859 176.031 C 293.078 180.336,290.373 195.014,277.778 198.175 C 261.035 202.377,244.444 196.791,244.444 186.952 C 244.444 175.044,264.234 169.268,281.859 176.031 M281.859 242.698 C 290.952 246.187,290.952 260.479,281.859 263.969 C 272.695 267.485,127.305 267.485,118.141 263.969 C 109.783 260.762,108.757 246.135,116.667 242.943 C 124.683 239.709,273.493 239.487,281.859 242.698 M281.859 296.031 C 290.952 299.521,290.952 313.813,281.859 317.302 C 272.695 320.819,127.305 320.819,118.141 317.302 C 109.783 314.095,108.757 299.468,116.667 296.277 C 124.683 293.042,273.493 292.821,281.859 296.031 " stroke="none" fill="#000000" fill-rule="evenodd"></path></g></svg>