<svg viewBox="0 0 800 500" preserveAspectRatio="none" xmlns="http://www.w3.org/2000/svg" xmlns:xlink="http://www.w3.org/1999/xlink" width="100%" id="blobSvg">
  <g transform="translate(141.07154846191406, -8.707237243652344)">
    <path class="blob" d="M423,282Q382,314,367,345.5Q352,377,313,365Q274,353,248,362Q222,371,161,404.5Q100,438,111.5,374.5Q123,311,89.5,280.5Q56,250,43.5,197Q31,144,84.5,126.5Q138,109,176,101.5Q214,94,256,66.5Q298,39,348.5,51.5Q399,64,394,123.5Q389,183,426.5,216.5Q464,250,423,282Z" fill="#8f6fd0"></path>
  </g>
</svg>