<svg xmlns="http://www.w3.org/2000/svg" version="1.1" xmlns:xlink="http://www.w3.org/1999/xlink" xmlns:svgjs="http://svgjs.com/svgjs" width="9000" height="9000" preserveAspectRatio="none" viewBox="0 0 9000 9000"><g mask="url(&quot;#SvgjsMask1048&quot;)" fill="none"><rect width="9000" height="9000" x="0" y="0" fill="rgba(5, 28, 50, 1)"></rect><path d="M0,3249.27C661.383,3245.065,1309.628,3234.736,1927.946,2999.942C2662.378,2721.056,3503.08,2460.76,3884.759,1774.11C4270.902,1079.427,4104.218,208.279,3907.791,-561.856C3725.222,-1277.659,3390.282,-1977.332,2811.012,-2435.756C2274.425,-2860.401,1496.184,-2687.817,870.706,-2965.352C103.821,-3305.632,-424.625,-4417.642,-1243.446,-4234.788C-2044.171,-4055.975,-2102.017,-2895.276,-2542.544,-2203.127C-2906.673,-1631.013,-3447.575,-1177.614,-3608.516,-518.826C-3778.652,177.599,-3772.488,934.756,-3467.64,1583.618C-3164.224,2229.433,-2586.953,2715.611,-1943.767,3024.56C-1343.684,3312.805,-665.708,3253.503,0,3249.27" fill="#031221"></path><path d="M9000 12561.103C9655.345 12520.449 10156.369 12012.575 10691.978 11632.769 11202.883 11270.481 11668.847 10888.4 12054.655 10395.014 12540.849 9773.251 13405.628 9160.95 13225.797999999999 8392.422 13041.126 7603.1990000000005 11877.833999999999 7568.782999999999 11268.318 7034.491 10773.965 6601.148999999999 10591.515 5871.464 10006.905999999999 5570.7919999999995 9369.64 5243.0380000000005 8628.155 5224.654 7916.732 5310.727 7106.504 5408.754 6156.693 5457.466 5650.722 6097.834 5144.902 6738.009 5303.978 7674.758 5409.618 8483.780999999999 5496.016 9145.445 5888.058 9688.622 6196.84 10280.16 6487.610000000001 10837.193 6680.121999999999 11454.815999999999 7167.512 11851.407 7686.101000000001 12273.385 8332.703 12602.498 9000 12561.103" fill="#072644"></path></g><defs><mask id="SvgjsMask1048"><rect width="9000" height="9000" fill="#ffffff"></rect></mask></defs></svg>